Coordinates
version=1
nRows=26
nColumns=24
inDegrees=yes

Units are S.I. units (second, meters, Newtons, ...)
Angles are in degrees.

endheader
time	pelvis_tilt	pelvis_list	pelvis_rotation	pelvis_tx	pelvis_ty	pelvis_tz	hip_flexion_r	hip_adduction_r	hip_rotation_r	knee_angle_r	ankle_angle_r	subtalar_angle_r	mtp_angle_r	hip_flexion_l	hip_adduction_l	hip_rotation_l	knee_angle_l	ankle_angle_l	subtalar_angle_l	mtp_angle_l	lumbar_extension	lumbar_bending	lumbar_rotation
      5.70000000	     12.90563224	     -0.53265750	     -2.79813705	      1.63228465	      0.73036698	     -0.31401206	    -22.29687293	     -0.13122486	     -3.91154164	    -35.25459950	     25.27840307	     28.92405037	      0.00000000	     16.95451713	      4.75754468	      0.56810356	    -23.76913689	     13.62615100	     -1.54786113	      0.00000000	    -33.07802965	      2.00641967	     14.04048658
      5.70500000	     12.96061732	     -0.04607920	     -2.94141568	      1.64045934	      0.73043614	     -0.31426459	    -21.62566529	     -1.02710145	     -4.32797492	    -37.55481211	     23.20729184	     29.35896860	      0.00000000	     16.87125624	      5.38527424	      0.59797351	    -24.95231755	     13.53995640	     -2.15886716	      0.00000000	    -33.02211510	      1.45585687	     14.01461033
      5.71000000	     13.01616391	      0.43911278	     -3.08744561	      1.64858582	      0.73057206	     -0.31449799	    -20.89517884	     -1.92588688	     -4.69215587	    -39.86300297	     20.99467393	     29.58599760	      0.00000000	     16.74162356	      6.00055778	      0.58379528	    -26.04807889	     13.58964815	     -2.63016607	      0.00000000	    -32.97090089	      0.90764997	     13.97757215
      5.71500000	     13.09793580	      0.90084439	     -3.21406916	      1.65662734	      0.73081134	     -0.31472021	    -20.14189642	     -2.78913751	     -5.01130783	    -42.14779882	     18.66760397	     29.52761096	      0.00000000	     16.54070425	      6.57574563	      0.50463363	    -27.05418060	     13.73747321	     -2.87939126	      0.00000000	    -32.96261281	      0.39626606	     13.91556272
      5.72000000	     13.11705998	      1.38577561	     -3.37647861	      1.66464512	      0.73102495	     -0.31494150	    -19.25823640	     -3.69363829	     -5.26210185	    -44.43191793	     16.41207010	     29.30284061	      0.00000000	     16.35851605	      7.17414726	      0.41206499	    -27.96631525	     14.05972759	     -3.14632874	      0.00000000	    -32.87745227	     -0.14530666	     13.87729131
      5.72500000	     13.15426482	      1.84355020	     -3.51080327	      1.67256625	      0.73132896	     -0.31514040	    -18.35397265	     -4.53930149	     -5.45432984	    -46.65851792	     14.19769957	     28.76457084	      0.00000000	     16.10737383	      7.73095385	      0.28001826	    -28.77312746	     14.48204664	     -3.21452633	      0.00000000	    -32.82665422	     -0.64340034	     13.79503997
      5.73000000	     13.18598725	      2.28419609	     -3.62998577	      1.68040301	      0.73168608	     -0.31532746	    -17.40381566	     -5.34624412	     -5.59972112	    -48.82711667	     12.14121332	     27.96565906	      0.00000000	     15.81415420	      8.26008598	      0.11176196	    -29.47902562	     15.00185697	     -3.17015270	      0.00000000	    -32.77874305	     -1.11233480	     13.68664991
      5.73500000	     13.25052187	      2.72920460	     -3.69590762	      1.68817434	      0.73215128	     -0.31553500	    -16.47481981	     -6.12468999	     -5.72902004	    -50.89705480	     10.24422568	     27.03555426	      0.00000000	     15.41861061	      8.80781373	      0.01417425	    -30.05260595	     15.58050629	     -3.02367772	      0.00000000	    -32.77558883	     -1.56014670	     13.48933710
      5.74000000	     13.21105155	      3.11332202	     -3.81964746	      1.69583424	      0.73253957	     -0.31563735	    -15.36252822	     -6.80346470	     -5.69459483	    -52.94871214	      8.74146648	     25.66300028	      0.00000000	     15.11144868	      9.24515268	     -0.24087545	    -30.57014594	     16.30223739	     -2.82541427	      0.00000000	    -32.66672769	     -1.96542736	     13.36473114
      5.74500000	     13.17920758	      3.47378177	     -3.88490124	      1.70341896	      0.73301639	     -0.31576388	    -14.25054660	     -7.40981681	     -5.63009975	    -54.88695796	      7.47819912	     24.21871015	      0.00000000	     14.72877505	      9.67437756	     -0.38423633	    -30.96194932	     17.07364562	     -2.51638944	      0.00000000	    -32.57669894	     -2.31854843	     13.17906169
      5.75000000	     13.15937167	      3.81948170	     -3.91039784	      1.71093289	      0.73356556	     -0.31589747	    -13.14194148	     -7.96704937	     -5.56642610	    -56.72187519	      6.52599858	     22.63061823	      0.00000000	     14.28787207	     10.08786974	     -0.52958396	    -31.26482758	     17.84029167	     -2.19304614	      0.00000000	    -32.50797927	     -2.63238585	     12.92410814
      5.75500000	     13.14430545	      4.15194870	     -3.89678455	      1.71837688	      0.73418320	     -0.31603127	    -12.03001003	     -8.47100424	     -5.48660910	    -58.45313244	      5.87939208	     20.92922075	      0.00000000	     13.79152835	     10.49076165	     -0.64395627	    -31.46975844	     18.60213744	     -1.86684089	      0.00000000	    -32.45405570	     -2.91174994	     12.59930845
      5.76000000	     13.10802269	      4.43970653	     -3.85544542	      1.72575265	      0.73485174	     -0.31615625	    -10.88392134	     -8.88599149	     -5.37277384	    -60.07658477	      5.50650918	     19.11392798	      0.00000000	     13.26847967	     10.84837575	     -0.70463353	    -31.58745002	     19.37485428	     -1.50885461	      0.00000000	    -32.38634548	     -3.13243173	     12.26339398
      5.76500000	     13.07513950	      4.71326425	     -3.77363486	      1.73307919	      0.73558688	     -0.31630171	     -9.74255278	     -9.25653518	     -5.26923016	    -61.58257531	      5.39340219	     17.24186855	      0.00000000	     12.69441373	     11.19879156	     -0.70996917	    -31.61842921	     20.11382364	     -1.15967363	      0.00000000	    -32.32715799	     -3.31397265	     11.87402293
      5.77000000	     13.03557902	      4.95056070	     -3.65350758	      1.74034898	      0.73637057	     -0.31645903	     -8.59406187	     -9.56089415	     -5.17872175	    -62.97197619	      5.51349472	     15.31133524	      0.00000000	     12.08931751	     11.51681168	     -0.65022760	    -31.58766475	     20.83637932	     -0.81738130	      0.00000000	    -32.26930736	     -3.44324167	     11.47782170
      5.77500000	     13.00538502	      5.17426832	     -3.49818350	      1.74758519	      0.73722814	     -0.31663427	     -7.46607771	     -9.82341137	     -5.09205798	    -64.22607727	      5.83004599	     13.37715719	      0.00000000	     11.42978413	     11.82747806	     -0.53687141	    -31.47630741	     21.50466338	     -0.52197054	      0.00000000	    -32.22464442	     -3.53330205	     11.00158865
      5.78000000	     12.98160362	      5.38093971	     -3.31109705	      1.75479538	      0.73815487	     -0.31682168	     -6.35547211	    -10.04974236	     -5.02338601	    -65.34405674	      6.29732380	     11.46229330	      0.00000000	     10.71888071	     12.12556925	     -0.36218091	    -31.28666859	     22.11049847	     -0.26934990	      0.00000000	    -32.18909459	     -3.58848119	     10.47655191
      5.78500000	     12.95600156	      5.55252534	     -3.09409449	      1.76197043	      0.73912376	     -0.31703148	     -5.25161108	    -10.22739805	     -4.97807964	    -66.33052865	      6.87460607	      9.57305598	      0.00000000	      9.97925624	     12.39070080	     -0.11885467	    -31.05029792	     22.67278157	     -0.05025990	      0.00000000	    -32.15798127	     -3.59289842	      9.93990345
      5.79000000	     12.92891302	      5.68942781	     -2.84363682	      1.76909445	      0.74013054	     -0.31725903	     -4.15522851	    -10.35214333	     -4.95018093	    -67.18159723	      7.52007141	      7.73131415	      0.00000000	      9.21977592	     12.62322349	      0.19699440	    -30.78457890	     23.20071541	      0.13027554	      0.00000000	    -32.13353079	     -3.54614819	      9.39512844
      5.79500000	     12.90687136	      5.82117902	     -2.57853337	      1.77623580	      0.74119015	     -0.31749615	     -3.08341745	    -10.47347559	     -4.94640823	    -67.88796970	      8.23514126	      6.00835764	      0.00000000	      8.41095937	     12.84901417	      0.55725897	    -30.43991804	     23.65760622	      0.26693605	      0.00000000	    -32.10687428	     -3.48454443	      8.80759510
      5.80000000	     12.89956640	      5.94572992	     -2.30481320	      1.78331622	      0.74226790	     -0.31772408	     -2.03156598	    -10.58458103	     -4.94446302	    -68.47407937	      9.03678453	      4.43168385	      0.00000000	      7.57988398	     13.06204296	      0.94921002	    -30.08163789	     24.04530037	      0.36979992	      0.00000000	    -32.10768651	     -3.41547316	      8.19972558
      5.80500000	     12.87483759	      6.02735860	     -1.99938145	      1.79040642	      0.74336575	     -0.31799156	     -0.98543086	    -10.64914832	     -4.98113486	    -68.90802112	      9.77593863	      2.91351857	      0.00000000	      6.73253243	     13.23153695	      1.42189097	    -29.67246611	     24.42495489	      0.42477229	      0.00000000	    -32.08321875	     -3.28079130	      7.58655791
      5.81000000	     12.84444147	      6.09286764	     -1.67273395	      1.79747301	      0.74447385	     -0.31824881	      0.04690660	    -10.69117084	     -5.03080501	    -69.20565573	     10.51647079	      1.54722314	      0.00000000	      5.87041900	     13.37406574	      1.93832387	    -29.22685456	     24.76693631	      0.45345240	      0.00000000	    -32.06001048	     -3.12871794	      6.96452877
      5.81500000	     12.81320550	      6.13739161	     -1.34140740	      1.80454589	      0.74557469	     -0.31852355	      1.05977614	    -10.72719442	     -5.10816523	    -69.37268906	     11.25919094	      0.33566987	      0.00000000	      4.99045051	     13.49070971	      2.50554625	    -28.75425906	     25.08732573	      0.45257481	      0.00000000	    -32.02873585	     -2.95234699	      6.35788809
      5.82000000	     12.78262078	      6.18222661	     -1.00718907	      1.81160369	      0.74666045	     -0.31875516	      2.05481465	    -10.76175496	     -5.18367558	    -69.42019848	     12.01281600	     -0.69888175	      0.00000000	      4.09974821	     13.58593776	      3.05446998	    -28.25797343	     25.36495750	      0.44340250	      0.00000000	    -31.99757175	     -2.78584224	      5.72441777
      5.82500000	     12.74155876	      6.20611497	     -0.63608537	      1.81864182	      0.74773480	     -0.31901751	      3.02929246	    -10.78145815	     -5.30358520	    -69.33366908	     12.70971138	     -1.59230090	      0.00000000	      3.19598132	     13.65327491	      3.69348299	    -27.72166121	     25.61335876	      0.41126722	      0.00000000	    -31.96124427	     -2.58647983	      5.11080735
